# xmcd
#
# Track frame offsets: 
#        150
#        20400
#        42363
#        57869
#        70414
#        80835
#        94766
#        106872
#        119940
#        135933
#        149523
#        180256
#        247484
#        292358
#        317574
#
# Disc length: 4771 seconds
#
# Revision: 0
# Processed by: cddbd v1.5.2PL0 Copyright (c) Steve Scherf et al.
# Submitted via: ExactAudioCopy v1.0b1
#
DISCID=e812a10f
DTITLE=The Aynsley Dunbar Retaliation - Dr. Dunbarґs Prescription and Bl
DTITLE=ue Whale
DYEAR=2004
DGENRE=Blues Rock
TTITLE0=The Fugitive
TTITLE1=Til your Lovinґ makes me blue
TTITLE2=Now that youґve lost me
TTITLE3=I tried
TTITLE4=Change your low down Ways
TTITLE5=Call my Woman
TTITLE6=The Devil drives
TTITLE7=Low Gear Man
TTITLE8=Tuesdayґs Blues
TTITLE9=Mean old World
TTITLE10=Willing to fight
TTITLE11=Willie the Pimp
TTITLE12=Itґs your turn
TTITLE13=Days
TTITLE14=Going home
EXTD=
EXTT0=
EXTT1=
EXTT2=
EXTT3=
EXTT4=
EXTT5=
EXTT6=
EXTT7=
EXTT8=
EXTT9=
EXTT10=
EXTT11=
EXTT12=
EXTT13=
EXTT14=
PLAYORDER=
